<?xml version="1.0" encoding="utf-8"?>
<!-- Generator: Adobe Illustrator 23.0.0, SVG Export Plug-In . SVG Version: 6.00 Build 0)  -->
<svg version="1.1" id="Layer_1" xmlns="http://www.w3.org/2000/svg" xmlns:xlink="http://www.w3.org/1999/xlink" x="0px" y="0px"
	 viewBox="0 0 204 62" style="enable-background:new 0 0 204 62;" xml:space="preserve">
<style type="text/css">
	.st0{clip-path:url(#SVGID_2_);fill:#30687D;}
	.st1{clip-path:url(#SVGID_2_);fill:#FFFFFF;}
	.st2{clip-path:url(#SVGID_2_);fill:#064357;}
</style>
<g>
	<defs>
		<rect id="SVGID_1_" x="2" y="2.16" width="200.33" height="57.84"/>
	</defs>
	<clipPath id="SVGID_2_">
		<use xlink:href="#SVGID_1_"  style="overflow:visible;"/>
	</clipPath>
	<path class="st0" d="M48.57,44.09c0-2.53-2.05-4.58-4.58-4.58c-2.53,0-4.58,2.05-4.58,4.58s2.05,4.58,4.58,4.58
		C46.52,48.66,48.57,46.61,48.57,44.09 M53.54,51.12c0-1.72-1.37-3.12-3.06-3.12c-1.69,0-3.06,1.4-3.06,3.12s1.37,3.12,3.06,3.12
		C52.17,54.24,53.54,52.84,53.54,51.12"/>
	<path class="st1" d="M92.44,28.88h-5.43V51.6h5.43V28.88z M41.12,27.71c0,7.49-6.07,13.56-13.56,13.56S14,35.2,14,27.71
		s6.07-13.56,13.56-13.56S41.12,20.23,41.12,27.71 M49.56,40.71c2.26-3.81,3.55-8.25,3.55-13c0-14.12-11.44-25.56-25.56-25.56
		C13.44,2.16,2,13.6,2,27.71s11.44,25.56,25.56,25.56c4.78,0,9.24-1.31,13.07-3.6c-1.88-1.14-3.13-3.2-3.13-5.56
		c0-3.6,2.92-6.52,6.52-6.52C46.36,37.6,48.42,38.85,49.56,40.71 M74.23,51.58h5.86V28.72h-6.19v11.1c0,2.91-0.97,6.68-5.45,6.68
		c-3.97,0-4.02-2.89-4.02-5.67V28.72h-6.19v14.32c0,5.11,2.87,8.9,8.51,8.9c3.23,0,5.48-1.41,7.37-3.61h0.09V51.58z M92.76,22.27
		c0-1.69-1.37-3.06-3.06-3.06c-1.69,0-3.06,1.37-3.06,3.06c0,1.69,1.37,3.06,3.06,3.06C91.39,25.33,92.76,23.96,92.76,22.27
		 M115.98,40.33c0,3.9-2.96,7.06-6.61,7.06s-6.61-3.16-6.61-7.06s2.96-7.06,6.61-7.06S115.98,36.43,115.98,40.33 M121.31,60V28.91
		h-5.52v3.27c-1.97-2.27-4.75-3.69-7.85-3.69c-5.97,0-10.82,5.28-10.82,11.79s4.84,11.79,10.82,11.79c3.1,0,5.88-1.42,7.85-3.69V60
		H121.31z"/>
	<path class="st2" d="M126.65,35.32h11.82v-6.49H126.8L126.65,35.32z M126.65,47.64l10.22-0.05v-6.45h-10.22V47.64z M189.39,44.88
		h-5.16v-9.56h5.16c3.29,0,5.2,1.64,5.2,4.71C194.59,43.19,192.68,44.88,189.39,44.88 M189.79,28.83h-13.7V60h8.14v-8.63h5.56
		c7.96,0,12.54-4.27,12.54-11.61C202.33,32.83,197.75,28.83,189.79,28.83 M152.03,35.32h5.91c3.29,0,5.2,1.64,5.2,4.71
		c0,3.16-1.91,4.85-5.2,4.85h-5.91V35.32z M171.82,60l-6.49-10.18c3.6-1.87,5.56-5.34,5.56-10.05c0-6.94-4.71-10.94-12.99-10.94
		h-14.01V60h8.14v-8.63h5.87h0.18l4.54,8.63H171.82z M126.8,60h12.12v-6.49h-12.26L126.8,60z"/>
</g>
</svg>
